<svg width="70" height="78" viewBox="0 0 70 78" fill="none" xmlns="http://www.w3.org/2000/svg">
<g filter="url(#filter0_d_82_3)">
<path d="M26.2529 34.8513C26.25 17.5 32.0833 5.83333 43.75 0C45.2083 17.5 61.25 23.3333 61.25 43.75C61.25 50.7119 58.4844 57.3887 53.5616 62.3116C48.6387 67.2344 41.9619 70 35 70C28.0381 70 21.3613 67.2344 16.4384 62.3116C11.5156 57.3887 8.75 50.7119 8.75 43.75C8.75 33.5417 11.6667 29.1667 17.5 23.3333C17.5 32.0833 26.2529 34.8513 26.2529 34.8513Z" fill="#F16923"/>
<path opacity="0.1" d="M35 69.2708C23.2575 69.2708 13.3146 61.6408 9.80585 51.0767C12.9792 62.0054 23.0475 70 35 70C46.9525 70 57.0209 62.0054 60.1942 51.0767C56.6854 61.6408 46.7425 69.2708 35 69.2708Z" fill="#010101"/>
<path d="M48.125 51.0417C48.125 54.5226 46.7422 57.861 44.2808 60.3225C41.8194 62.7839 38.481 64.1667 35 64.1667C31.519 64.1667 28.1806 62.7839 25.7192 60.3225C23.2578 57.861 21.875 54.5226 21.875 51.0417C21.875 46.1504 23.3333 43.6275 26.25 40.8333C26.25 46.6667 30.625 48.125 30.625 48.125C30.625 39.8125 33.5417 34.8775 39.375 32.0833C40.1042 40.4688 48.125 43.2046 48.125 51.0417Z" fill="#FDB816"/>
<path opacity="0.2" d="M30.625 48.8542C30.625 40.5417 33.5417 35.6067 39.375 32.8125C40.0896 41.0317 47.7925 43.8346 48.0958 51.3246C48.0987 51.2283 48.125 51.1379 48.125 51.0417C48.125 43.2017 40.1042 40.4688 39.375 32.0833C33.5417 34.8775 30.625 39.8125 30.625 48.125C30.625 48.125 26.25 46.6667 26.25 40.8333C23.3333 43.6275 21.875 46.1504 21.875 51.0417C21.875 51.1117 21.8954 51.1758 21.8954 51.2458C22.0033 46.7104 23.4413 44.2517 26.25 41.5625C26.25 47.3958 30.625 48.8542 30.625 48.8542Z" fill="white"/>
<path opacity="0.1" d="M35 63.4375C31.5567 63.4356 28.2524 62.0794 25.8005 59.6619C23.3486 57.2444 21.946 53.9596 21.8954 50.5167C21.8925 50.6975 21.875 50.855 21.875 51.0417C21.875 54.5226 23.2578 57.861 25.7192 60.3224C28.1806 62.7839 31.519 64.1667 35 64.1667C38.481 64.1667 41.8194 62.7839 44.2808 60.3224C46.7422 57.861 48.125 54.5226 48.125 51.0417C48.125 50.8871 48.1017 50.7471 48.0958 50.5954C48.0264 54.0235 46.6164 57.2879 44.1683 59.6886C41.7202 62.0893 38.4288 63.4351 35 63.4375Z" fill="#010101"/>
<path opacity="0.2" d="M26.2529 35.5804C26.25 18.2292 32.0833 6.5625 43.75 0.729167C45.1996 18.1183 61.0312 24.0042 61.2325 44.1087C61.2325 43.9892 61.25 43.8725 61.25 43.75C61.25 23.3333 45.2083 17.5 43.75 0C32.0833 5.83333 26.25 17.5 26.2529 34.8512C26.2529 34.8512 17.5 32.0833 17.5 23.3333C11.6667 29.1667 8.75 33.5417 8.75 43.75C8.75 43.855 8.76458 43.96 8.76458 44.065C8.85208 34.1687 11.7542 29.8083 17.5 24.0625C17.5 32.8125 26.2529 35.5804 26.2529 35.5804Z" fill="white"/>
<path d="M26.2529 34.8513C26.25 17.5 32.0833 5.83333 43.75 0C45.2083 17.5 61.25 23.3333 61.25 43.75C61.25 50.7119 58.4844 57.3887 53.5616 62.3116C48.6387 67.2344 41.9619 70 35 70C28.0381 70 21.3613 67.2344 16.4384 62.3116C11.5156 57.3887 8.75 50.7119 8.75 43.75C8.75 33.5417 11.6667 29.1667 17.5 23.3333C17.5 32.0833 26.2529 34.8513 26.2529 34.8513Z" fill="url(#paint0_linear_82_3)"/>
</g>
<defs>
<filter id="filter0_d_82_3" x="-4" y="0" width="78" height="78" filterUnits="userSpaceOnUse" color-interpolation-filters="sRGB">
<feFlood flood-opacity="0" result="BackgroundImageFix"/>
<feColorMatrix in="SourceAlpha" type="matrix" values="0 0 0 0 0 0 0 0 0 0 0 0 0 0 0 0 0 0 127 0" result="hardAlpha"/>
<feOffset dy="4"/>
<feGaussianBlur stdDeviation="2"/>
<feComposite in2="hardAlpha" operator="out"/>
<feColorMatrix type="matrix" values="0 0 0 0 0 0 0 0 0 0 0 0 0 0 0 0 0 0 0.25 0"/>
<feBlend mode="normal" in2="BackgroundImageFix" result="effect1_dropShadow_82_3"/>
<feBlend mode="normal" in="SourceGraphic" in2="effect1_dropShadow_82_3" result="shape"/>
</filter>
<linearGradient id="paint0_linear_82_3" x1="14.3085" y1="24.6716" x2="62.4081" y2="47.1008" gradientUnits="userSpaceOnUse">
<stop stop-color="white" stop-opacity="0.2"/>
<stop offset="1" stop-color="white" stop-opacity="0"/>
</linearGradient>
</defs>
</svg>
