<svg width="78" height="64" viewBox="0 0 78 64" fill="none" xmlns="http://www.w3.org/2000/svg">
<g filter="url(#filter0_d_82_77)">
<path d="M4.20401 9.76612V36.774C4.20401 38.8348 5.87462 40.5054 7.93547 40.5054H12.0997L22.8725 54.4945C23.7419 55.6234 25.5476 55.0086 25.5476 53.5839V40.5054H60.6498C62.7106 40.5054 64.3812 38.8348 64.3812 36.774V9.76612C64.3812 7.70528 62.7106 6.03467 60.6498 6.03467H7.93533C5.87462 6.0348 4.20401 7.70541 4.20401 9.76612Z" fill="#F65E5E"/>
<path d="M8.26527 11.3289C7.35189 13.4002 8.05319 15.7816 8.54256 17.9945C9.03193 20.2072 9.16237 22.8604 7.49874 24.3937C6.61257 25.2092 5.42723 25.5083 4.20401 25.6334V9.76846C4.20401 7.70789 5.87312 6.03345 7.93369 6.03345H11.9679C11.7014 6.89241 11.136 7.67001 10.5326 8.36051C9.7115 9.30083 8.77091 10.1817 8.26527 11.3289Z" fill="#FE8787"/>
<path d="M64.3794 9.76835V36.7735C64.3794 38.8341 62.7103 40.5032 60.6497 40.5032H25.5492V53.5843C25.5492 55.0088 23.7442 55.6231 22.8743 54.4922L19.8514 50.5722C20.444 48.8216 20.5689 46.9187 20.134 45.119C19.6718 43.2051 18.6443 41.2806 19.1554 39.3832C19.8514 36.817 22.9775 35.7731 25.6361 35.8384C28.0772 35.9036 30.4586 36.5451 32.889 36.7735C35.3139 37.0018 37.9345 36.7681 39.8809 35.2947C41.55 34.0333 42.5178 32.0217 44.1597 30.7222C47.5251 28.0582 52.9893 28.9117 55.8164 25.6822C57.4855 23.7738 57.6703 21.0174 57.7682 18.4783C57.8661 16.0644 57.9368 13.5307 56.8766 11.3614C56.023 9.61617 54.479 8.21355 53.9951 6.33224C53.9679 6.23434 53.9461 6.1311 53.9298 6.0332H60.6499C62.7103 6.0332 64.3794 7.70778 64.3794 9.76835Z" fill="#E53E3E"/>
<path d="M73.7961 1.83495V10.2349C73.7961 11.1357 73.0658 11.866 72.165 11.866H27.4412C26.5404 11.866 25.8101 11.1357 25.8101 10.2349V1.83495C25.8101 0.934151 26.5404 0.203857 27.4412 0.203857H72.165C73.066 0.203857 73.7961 0.934151 73.7961 1.83495Z" fill="#E6F5FF"/>
<path d="M73.7961 1.83593V10.2359C73.7961 11.1328 73.0676 11.867 72.165 11.867H33.8567C33.9871 11.2146 34.3731 10.5947 34.8843 10.1597C35.7434 9.4312 36.8904 9.14843 38.0159 9.03973C42.398 8.61558 46.7965 10.6055 51.146 9.93137C54.6418 9.38771 57.7572 7.16949 61.2857 6.94648C62.9712 6.83777 64.6621 7.19656 66.3366 6.98463C68.0057 6.76708 69.7728 5.72873 70.0174 4.05949C70.2077 2.77105 69.452 1.46073 69.1747 0.204834H72.1649C73.0676 0.204971 73.7961 0.93335 73.7961 1.83593Z" fill="#CFE9FF"/>
<path d="M34.6406 7.20032L35.0129 8.34793C35.1743 8.8455 34.6046 9.25871 34.1817 8.95078L33.2081 8.24168C33.019 8.10399 32.7627 8.10372 32.5733 8.24114L31.5874 8.95653C31.1644 9.26336 30.5958 8.85015 30.757 8.35312L31.1309 7.20046C31.203 6.9784 31.1241 6.73515 30.9353 6.5976L29.9567 5.88481C29.5343 5.57716 29.7518 4.90881 30.2744 4.90881H31.4832C31.7164 4.90881 31.9234 4.75895 31.996 4.53716L32.3755 3.37972C32.5382 2.88337 33.2406 2.88447 33.4018 3.38122L33.7763 4.53566C33.8485 4.75813 34.0558 4.90881 34.2898 4.90881H35.4971C36.0197 4.90881 36.2372 5.57716 35.8149 5.88481L34.8363 6.5976C34.6476 6.73488 34.5686 6.97813 34.6406 7.20032Z" fill="#FDBB48"/>
<path d="M34.6429 7.20261L35.0107 8.34529C35.1751 8.84615 34.6037 9.261 34.1812 8.94788L33.2108 8.24343C33.0229 8.10259 32.7646 8.10259 32.5769 8.24343L31.5907 8.95567C31.575 8.96346 31.5594 8.97919 31.5438 8.97919C31.5125 8.83835 31.5047 8.68959 31.5203 8.54875C31.5752 8.06348 31.8881 7.64098 32.2404 7.29655C32.5926 6.95225 32.9995 6.66265 33.3439 6.31043C33.6882 5.95041 33.97 5.50424 33.9858 5.01132C33.9858 4.9409 33.9858 4.87035 33.978 4.80786C34.0641 4.87049 34.1736 4.90959 34.2911 4.90959H35.4964C36.0208 4.90959 36.24 5.5748 35.8173 5.88792L34.839 6.60016C34.6507 6.73307 34.5725 6.97563 34.6429 7.20261Z" fill="#F7934E"/>
<path d="M43.0989 7.20032L43.4713 8.34793C43.6326 8.8455 43.063 9.25871 42.6401 8.95078L41.6664 8.24168C41.4773 8.10399 41.221 8.10372 41.0317 8.24114L40.0457 8.95653C39.6228 9.26336 39.0541 8.85015 39.2153 8.35312L39.5893 7.20046C39.6613 6.9784 39.5824 6.73515 39.3936 6.5976L38.415 5.88481C37.9926 5.57716 38.2102 4.90881 38.7328 4.90881H39.9415C40.1748 4.90881 40.3818 4.75895 40.4544 4.53716L40.8338 3.37972C40.9965 2.88337 41.6989 2.88447 41.8601 3.38122L42.2346 4.53566C42.3068 4.75813 42.5141 4.90881 42.7481 4.90881H43.9554C44.478 4.90881 44.6956 5.57716 44.2732 5.88481L43.2946 6.5976C43.1058 6.73488 43.0269 6.97813 43.0989 7.20032Z" fill="#FDBB48"/>
<path d="M43.1011 7.20261L43.4689 8.34529C43.6333 8.84615 43.0619 9.261 42.6394 8.94788L41.669 8.24343C41.4811 8.10259 41.2228 8.10259 41.0351 8.24343L40.0489 8.95567C40.0332 8.96346 40.0176 8.97919 40.002 8.97919C39.9707 8.83835 39.9629 8.68959 39.9785 8.54875C40.0333 8.06348 40.3463 7.64098 40.6986 7.29655C41.0508 6.95225 41.4577 6.66265 41.8021 6.31043C42.1464 5.95041 42.4282 5.50424 42.444 5.01132C42.444 4.9409 42.444 4.87035 42.4362 4.80786C42.5223 4.87049 42.6318 4.90959 42.7493 4.90959H43.9546C44.479 4.90959 44.6981 5.5748 44.2755 5.88792L43.2972 6.60016C43.1089 6.73307 43.0307 6.97563 43.1011 7.20261Z" fill="#F7934E"/>
<path d="M51.5573 7.20032L51.9296 8.34793C52.0909 8.8455 51.5212 9.25871 51.0984 8.95078L50.1247 8.24168C49.9356 8.10399 49.6794 8.10372 49.49 8.24114L48.504 8.95653C48.0811 9.26336 47.5124 8.85015 47.6736 8.35312L48.0476 7.20046C48.1196 6.9784 48.0407 6.73515 47.8519 6.5976L46.8733 5.88481C46.4509 5.57716 46.6685 4.90881 47.1911 4.90881H48.3998C48.6331 4.90881 48.8401 4.75895 48.9127 4.53716L49.2921 3.37972C49.4548 2.88337 50.1572 2.88447 50.3185 3.38122L50.693 4.53566C50.7652 4.75813 50.9724 4.90881 51.2064 4.90881H52.4138C52.9364 4.90881 53.1539 5.57716 52.7315 5.88481L51.7529 6.5976C51.5641 6.73488 51.4852 6.97813 51.5573 7.20032Z" fill="#FDBB48"/>
<path d="M51.5595 7.20261L51.9273 8.34529C52.0916 8.84615 51.5202 9.261 51.0977 8.94788L50.1273 8.24343C49.9394 8.10259 49.6811 8.10259 49.4934 8.24343L48.5073 8.95567C48.4916 8.96346 48.476 8.97919 48.4604 8.97919C48.4291 8.83835 48.4213 8.68959 48.4369 8.54875C48.4917 8.06348 48.8047 7.64098 49.1569 7.29655C49.5091 6.95225 49.9161 6.66265 50.2605 6.31043C50.6048 5.95041 50.8866 5.50424 50.9023 5.01132C50.9023 4.9409 50.9023 4.87035 50.8945 4.80786C50.9807 4.87049 51.0902 4.90959 51.2076 4.90959H52.4129C52.9373 4.90959 53.1565 5.5748 52.7339 5.88792L51.7555 6.60016C51.5672 6.73307 51.489 6.97563 51.5595 7.20261Z" fill="#F7934E"/>
<path d="M60.0154 7.20032L60.3878 8.34793C60.5491 8.8455 59.9793 9.25871 59.5566 8.95078L58.5829 8.24168C58.3938 8.10399 58.1375 8.10372 57.9482 8.24114L56.9622 8.95653C56.5393 9.26336 55.9706 8.85015 56.1318 8.35312L56.5058 7.20046C56.5778 6.9784 56.4989 6.73515 56.3101 6.5976L55.3315 5.88481C54.9091 5.57716 55.1267 4.90881 55.6493 4.90881H56.858C57.0913 4.90881 57.2983 4.75895 57.3709 4.53716L57.7503 3.37972C57.913 2.88337 58.6154 2.88447 58.7766 3.38122L59.1512 4.53566C59.2233 4.75813 59.4306 4.90881 59.6646 4.90881H60.8719C61.3945 4.90881 61.6121 5.57716 61.1897 5.88481L60.2111 6.5976C60.0223 6.73488 59.9434 6.97813 60.0154 7.20032Z" fill="#FDBB48"/>
<path d="M60.0176 7.20261L60.3855 8.34529C60.5498 8.84615 59.9784 9.261 59.5559 8.94788L58.5855 8.24343C58.3976 8.10259 58.1393 8.10259 57.9516 8.24343L56.9655 8.95567C56.9498 8.96346 56.9342 8.97919 56.9186 8.97919C56.8873 8.83835 56.8795 8.68959 56.8951 8.54875C56.9499 8.06348 57.2629 7.64098 57.6151 7.29655C57.9673 6.95225 58.3742 6.66265 58.7187 6.31043C59.063 5.95041 59.3448 5.50424 59.3605 5.01132C59.3605 4.9409 59.3605 4.87035 59.3527 4.80786C59.4389 4.87049 59.5484 4.90959 59.6658 4.90959H60.8711C61.3955 4.90959 61.6147 5.5748 61.192 5.88792L60.2137 6.60016C60.0256 6.73307 59.9472 6.97563 60.0176 7.20261Z" fill="#F7934E"/>
<path d="M68.4738 7.20032L68.8461 8.34793C69.0074 8.8455 68.4378 9.25871 68.0149 8.95078L67.0412 8.24168C66.8521 8.10399 66.5959 8.10372 66.4065 8.24114L65.4205 8.95653C64.9976 9.26336 64.4289 8.85015 64.5901 8.35312L64.9641 7.20046C65.0362 6.9784 64.9573 6.73515 64.7684 6.5976L63.7898 5.88481C63.3675 5.57716 63.585 4.90881 64.1076 4.90881H65.3163C65.5496 4.90881 65.7566 4.75895 65.8292 4.53716L66.2086 3.37972C66.3714 2.88337 67.0738 2.88447 67.235 3.38122L67.6095 4.53566C67.6817 4.75813 67.889 4.90881 68.1229 4.90881H69.3303C69.8529 4.90881 70.0704 5.57716 69.648 5.88481L68.6694 6.5976C68.4806 6.73488 68.4017 6.97813 68.4738 7.20032Z" fill="#FDBB48"/>
<path d="M68.476 7.20261L68.8438 8.34529C69.0081 8.84615 68.4367 9.261 68.0142 8.94788L67.0438 8.24343C66.8559 8.10259 66.5977 8.10259 66.4099 8.24343L65.4238 8.95567C65.4081 8.96346 65.3925 8.97919 65.3769 8.97919C65.3456 8.83835 65.3378 8.68959 65.3534 8.54875C65.4082 8.06348 65.7212 7.64098 66.0734 7.29655C66.4257 6.95225 66.8326 6.66265 67.177 6.31043C67.5213 5.95041 67.8031 5.50424 67.8188 5.01132C67.8188 4.9409 67.8188 4.87035 67.811 4.80786C67.8972 4.87049 68.0067 4.90959 68.1242 4.90959H69.3295C69.8538 4.90959 70.073 5.5748 69.6504 5.88792L68.672 6.60016C68.4838 6.73307 68.4055 6.97563 68.476 7.20261Z" fill="#F7934E"/>
<path d="M64.3793 12.7504C64.2668 12.7504 64.1754 12.8417 64.1754 12.9543V36.7734C64.1754 38.7174 62.5937 40.2992 60.6499 40.2992H25.5491C25.4365 40.2992 25.3452 40.3905 25.3452 40.503V53.5842C25.3452 54.8136 23.7882 55.3456 23.0356 54.3678L12.2595 40.3785C12.2212 40.3286 12.1613 40.299 12.0982 40.299H7.93382C5.98947 40.299 4.40774 38.7173 4.40774 36.7732V9.76836C4.40774 7.82114 5.98947 6.23709 7.93382 6.23709H24.7229C24.8354 6.23709 24.9268 6.14575 24.9268 6.03322C24.9268 5.92068 24.8354 5.82935 24.7229 5.82935H7.93382C5.76496 5.82935 4 7.59635 4 9.7685V36.7735C4 38.9424 5.76482 40.707 7.93382 40.707H11.9977L22.7127 54.6168C23.7007 55.9009 25.7528 55.2043 25.7528 53.5843V40.707H60.6498C62.8186 40.707 64.583 38.9425 64.583 36.7735V12.9543C64.5832 12.8417 64.4918 12.7504 64.3793 12.7504Z" fill="#4C4C4C"/>
<path d="M57.7319 15.6103H10.8525C10.74 15.6103 10.6487 15.7016 10.6487 15.8142C10.6487 15.9267 10.74 16.018 10.8525 16.018H57.7319C57.8444 16.018 57.9357 15.9267 57.9357 15.8142C57.9357 15.7016 57.8444 15.6103 57.7319 15.6103ZM57.7319 20.5808H10.8525C10.74 20.5808 10.6487 20.6722 10.6487 20.7847C10.6487 20.8972 10.74 20.9886 10.8525 20.9886H57.7319C57.8444 20.9886 57.9357 20.8972 57.9357 20.7847C57.9357 20.6722 57.8444 20.5808 57.7319 20.5808ZM57.7319 25.5512H10.8525C10.74 25.5512 10.6487 25.6426 10.6487 25.7551C10.6487 25.8676 10.74 25.959 10.8525 25.959H57.7319C57.8444 25.959 57.9357 25.8676 57.9357 25.7551C57.9357 25.6426 57.8444 25.5512 57.7319 25.5512ZM57.7319 30.5218H29.5269C29.4144 30.5218 29.323 30.6131 29.323 30.7256C29.323 30.8382 29.4144 30.9295 29.5269 30.9295H57.7319C57.8444 30.9295 57.9357 30.8382 57.9357 30.7256C57.9357 30.6131 57.8444 30.5218 57.7319 30.5218ZM72.165 0H27.4413C26.4293 0 25.6064 0.823272 25.6064 1.83496V10.2348C25.6064 11.2465 26.4293 12.0697 27.4413 12.0697H72.165C73.177 12.0697 74 11.2465 74 10.2348V1.83496C74 0.823272 73.1771 0 72.165 0ZM73.5923 10.2348C73.5923 11.0217 72.9519 11.662 72.165 11.662H27.4413C26.6544 11.662 26.0141 11.0217 26.0141 10.2348V1.83496C26.0141 1.04806 26.6544 0.407739 27.4413 0.407739H72.165C72.9519 0.407739 73.5923 1.04806 73.5923 1.83496V10.2348Z" fill="#4C4C4C"/>
<path d="M35.4968 4.70482H34.2895C34.1434 4.70482 34.0149 4.61171 33.9698 4.47279L33.5954 3.31821C33.4945 3.00659 33.2179 2.80478 32.8897 2.80396C32.8892 2.80396 32.8886 2.80396 32.8881 2.80396C32.561 2.80396 32.2839 3.00495 32.1814 3.31602L31.8023 4.47374C31.7572 4.61185 31.6286 4.70469 31.4831 4.70469H30.2741C29.946 4.70469 29.6688 4.90623 29.567 5.21812C29.4655 5.53001 29.5712 5.85626 29.8367 6.0496L30.8153 6.76212C30.9327 6.84812 30.982 6.99894 30.9369 7.13745L30.5631 8.29011C30.4616 8.60173 30.5673 8.92811 30.8328 9.12077C31.0967 9.31288 31.4403 9.31493 31.7073 9.12159L32.6927 8.4062C32.8127 8.32047 32.9709 8.32129 33.0877 8.40647L34.0615 9.11557C34.3254 9.30836 34.6689 9.3096 34.9359 9.11639C35.2019 8.9236 35.3081 8.59735 35.2067 8.28519L34.8339 7.13786C34.7894 6.99907 34.8382 6.84798 34.956 6.76253L35.9346 6.04973C36.1996 5.85653 36.3052 5.52987 36.2039 5.21798C36.1027 4.90637 35.825 4.70482 35.4968 4.70482ZM35.6949 5.71993L34.7163 6.43272C34.4556 6.62224 34.3473 6.956 34.4466 7.26311V7.26338L34.8193 8.41098C34.8745 8.5819 34.7922 8.71713 34.6967 8.78632C34.6011 8.85619 34.446 8.89174 34.3016 8.78577L33.3278 8.07667C33.0671 7.88716 32.7162 7.88688 32.4534 8.07585L31.468 8.79124C31.3214 8.89693 31.1685 8.86029 31.0729 8.79097C30.9774 8.72164 30.8956 8.58682 30.9508 8.4159L31.3247 7.26324C31.4245 6.95669 31.3162 6.62292 31.0554 6.43259L30.0768 5.7198C29.9314 5.61383 29.9186 5.45645 29.9553 5.34419C29.9914 5.2322 30.0943 5.11243 30.2744 5.11243H31.4834C31.8057 5.11243 32.0897 4.90664 32.1901 4.60063L32.5692 3.44318C32.625 3.27254 32.771 3.21169 32.8884 3.21169C33.0036 3.23261 33.1522 3.27254 33.208 3.444L33.5824 4.59858C33.6822 4.90596 33.9662 5.11256 34.2896 5.11256H35.497C35.6769 5.11256 35.78 5.23234 35.8166 5.34433C35.8531 5.45658 35.8404 5.6141 35.6949 5.71993ZM43.9554 4.70482H42.7481C42.602 4.70482 42.4735 4.61171 42.4284 4.47279L42.054 3.31821C41.9525 3.00632 41.6754 2.8045 41.3474 2.80396H41.3468C41.0192 2.80396 40.742 3.00495 40.6402 3.31602L40.2606 4.47374C40.2155 4.61185 40.087 4.70469 39.9415 4.70469H38.733C38.4049 4.70469 38.1277 4.90623 38.0258 5.21812C37.9244 5.53001 38.0301 5.85626 38.2951 6.0496L39.2737 6.76239C39.3915 6.84812 39.4409 6.99894 39.3958 7.13745L39.0219 8.29011C38.9205 8.602 39.0267 8.92811 39.2917 9.12104C39.5549 9.31206 39.8981 9.31561 40.1652 9.12159L41.1522 8.40592C41.2701 8.32047 41.4289 8.32047 41.5467 8.40647L42.5205 9.11557C42.7855 9.3085 43.1296 9.30932 43.3945 9.11639C43.6605 8.92387 43.7667 8.59735 43.6653 8.28519L43.2931 7.13758C43.248 6.99907 43.2973 6.84826 43.4146 6.76253L44.3937 6.04973C44.6586 5.85653 44.7642 5.53015 44.6629 5.21826C44.5606 4.90637 44.2836 4.70482 43.9554 4.70482ZM44.1534 5.71993L43.1744 6.433C42.9136 6.62306 42.8054 6.95682 42.9052 7.26338L43.2774 8.41098C43.3326 8.58217 43.2503 8.71713 43.1553 8.78632C43.0597 8.85509 42.9057 8.89228 42.7602 8.78577L41.7864 8.07667C41.5262 7.88661 41.1748 7.88634 40.9124 8.07585L39.9259 8.79124C39.7799 8.89816 39.627 8.86029 39.5314 8.79097C39.4358 8.72164 39.3541 8.58682 39.4093 8.4159L39.7831 7.26324C39.883 6.95641 39.7747 6.62265 39.5134 6.43259L38.5348 5.7198C38.3898 5.6141 38.3771 5.45645 38.4132 5.34446C38.4498 5.2322 38.5528 5.11243 38.7329 5.11243H39.9413C40.2636 5.11243 40.5476 4.90664 40.648 4.60063L41.0275 3.44291C41.0833 3.27254 41.2288 3.21169 41.3467 3.21169C41.4645 3.21197 41.6106 3.27295 41.6664 3.444L42.0407 4.59858C42.1406 4.90596 42.4246 5.11256 42.7479 5.11256H43.9553C44.1352 5.11256 44.2383 5.23234 44.275 5.3446C44.3111 5.45658 44.2983 5.61437 44.1534 5.71993ZM52.4139 4.70482H51.2065C51.0605 4.70482 50.932 4.61171 50.8868 4.47279L50.5121 3.31821C50.4112 3.00659 50.1345 2.80478 49.8064 2.80396C49.8058 2.80396 49.8053 2.80396 49.8047 2.80396C49.4777 2.80396 49.2005 3.00495 49.0981 3.31602L48.7189 4.47374C48.6738 4.61185 48.5453 4.70469 48.3998 4.70469H47.1908C46.8626 4.70469 46.5855 4.90623 46.4836 5.21812C46.3822 5.53001 46.4879 5.85626 46.7534 6.0496L47.732 6.76212C47.8493 6.84812 47.8987 6.99894 47.8536 7.13745L47.4797 8.29011C47.3783 8.60173 47.484 8.92811 47.7495 9.12077C48.0134 9.31288 48.357 9.31493 48.6239 9.12159L49.6094 8.4062C49.7294 8.32047 49.8876 8.32129 50.0044 8.40647L50.9782 9.11557C51.2441 9.30905 51.5872 9.30932 51.8531 9.11639C52.1187 8.9236 52.2248 8.59735 52.1233 8.28519L51.7506 7.13786C51.706 6.99907 51.7548 6.84798 51.8727 6.76253L52.8512 6.04973C53.1167 5.85653 53.2223 5.53015 53.1209 5.21826C53.0192 4.90637 52.742 4.70482 52.4139 4.70482ZM52.6115 5.71993L51.633 6.43272C51.3723 6.62224 51.264 6.956 51.3632 7.26311V7.26338L51.736 8.41098C51.7912 8.5819 51.7089 8.71713 51.6139 8.78632C51.5177 8.85482 51.3643 8.89146 51.2183 8.78577L50.2445 8.07667C49.9837 7.88716 49.6329 7.88688 49.3701 8.07585L48.3846 8.79124C48.2381 8.89693 48.0852 8.86029 47.9896 8.79097C47.894 8.72164 47.8123 8.58682 47.8675 8.4159L48.2413 7.26324C48.3411 6.95669 48.2329 6.62292 47.9721 6.43259L46.9935 5.7198C46.848 5.61383 46.8353 5.45645 46.8719 5.34419C46.908 5.2322 47.011 5.11243 47.1911 5.11243H48.4001C48.7224 5.11243 49.0064 4.90664 49.1067 4.60063L49.4859 3.44318C49.5417 3.27254 49.6877 3.21169 49.805 3.21169C49.935 3.23261 50.0689 3.27254 50.1247 3.444L50.4995 4.59858C50.5993 4.90596 50.8833 5.11256 51.2067 5.11256H52.414C52.594 5.11256 52.6971 5.23234 52.7332 5.34433C52.7697 5.45658 52.757 5.6141 52.6115 5.71993ZM60.8718 4.70482H59.6645C59.5184 4.70482 59.3899 4.61171 59.3448 4.47279L58.9704 3.31821C58.8689 3.00632 58.5918 2.8045 58.2638 2.80396H58.2632C57.9356 2.80396 57.6584 3.00495 57.5566 3.31602L57.177 4.47374C57.1319 4.61185 57.0033 4.70469 56.8579 4.70469H55.6494C55.3213 4.70469 55.0441 4.90623 54.9422 5.21812C54.8408 5.53001 54.9465 5.85626 55.2115 6.0496L56.1899 6.76239C56.3078 6.84812 56.3571 6.99894 56.312 7.13745L55.9382 8.29011C55.8367 8.60173 55.9424 8.92811 56.208 9.12077C56.4719 9.31288 56.8155 9.31493 57.0824 9.12159L58.0684 8.40592C58.1862 8.32047 58.345 8.32047 58.4628 8.40647L59.4367 9.11557C59.7016 9.3085 60.0457 9.30932 60.3107 9.11639C60.5766 8.92387 60.6828 8.59735 60.5814 8.28519L60.2092 7.13758C60.1641 6.99907 60.2134 6.84826 60.3308 6.76253L61.3098 6.04973C61.5748 5.85653 61.6803 5.53015 61.579 5.21826C61.4771 4.90637 61.2 4.70482 60.8718 4.70482ZM61.0699 5.71993L60.0909 6.433C59.8302 6.62306 59.7219 6.95682 59.8217 7.26338L60.1939 8.41098C60.2491 8.58217 60.1668 8.71713 60.0718 8.78632C59.9768 8.85509 59.8222 8.89228 59.6768 8.78577L58.7029 8.07667C58.4427 7.88661 58.0919 7.88634 57.8285 8.07585L56.8431 8.79124C56.696 8.89693 56.5431 8.86029 56.4481 8.79097C56.3525 8.72164 56.2707 8.58682 56.326 8.4159L56.6998 7.26324C56.7996 6.95641 56.6913 6.62265 56.43 6.43259L55.4516 5.7198C55.3066 5.6141 55.2939 5.45645 55.33 5.34446C55.3666 5.2322 55.4696 5.11243 55.6497 5.11243H56.8581C57.1804 5.11243 57.4644 4.90664 57.5648 4.60063L57.9443 3.44291C58.0001 3.27254 58.1456 3.21169 58.2635 3.21169C58.3813 3.21197 58.5274 3.27295 58.5832 3.444L58.9575 4.59858C59.0574 4.90596 59.3414 5.11256 59.6647 5.11256H60.8721C61.052 5.11256 61.1551 5.23234 61.1918 5.3446C61.2276 5.45658 61.2149 5.61437 61.0699 5.71993ZM69.3304 4.70482H68.1231C67.977 4.70482 67.8485 4.61171 67.8034 4.47279L67.4286 3.31821C67.3277 3.00659 67.0511 2.80478 66.7229 2.80396C66.4113 2.80874 66.117 3.00468 66.0146 3.31602L65.6356 4.47374C65.5905 4.61185 65.462 4.70469 65.3165 4.70469H64.1075C63.7793 4.70469 63.5022 4.90623 63.4003 5.21812C63.2988 5.53001 63.4045 5.85626 63.6701 6.0496L64.6485 6.76212C64.7658 6.84812 64.8152 6.99894 64.7701 7.13745L64.3962 8.29011C64.2948 8.60227 64.401 8.92825 64.6664 9.12104C64.934 9.31534 65.2768 9.31247 65.5404 9.12159L66.5259 8.4062C66.6459 8.32047 66.8047 8.32129 66.9214 8.40647L67.8947 9.11557C68.1607 9.30905 68.5037 9.30932 68.7697 9.11639C69.0352 8.9236 69.1413 8.59735 69.04 8.28519L68.6678 7.13758C68.6227 6.99907 68.672 6.84826 68.7894 6.76253L69.7678 6.04973C70.0334 5.85653 70.1389 5.53015 70.0376 5.21826C69.9356 4.90637 69.6584 4.70482 69.3304 4.70482ZM69.5279 5.71993L68.5493 6.433C68.2885 6.62306 68.1802 6.95682 68.28 7.26338L68.6522 8.41098C68.7075 8.5819 68.6251 8.71713 68.5301 8.78632C68.434 8.85482 68.2806 8.89146 68.1345 8.78577L67.1613 8.07667C66.8996 7.88716 66.5491 7.88688 66.2863 8.07585L65.3009 8.79124C65.1543 8.89693 65.0014 8.86029 64.9059 8.79097C64.8108 8.72164 64.7285 8.58682 64.7838 8.4159L65.1576 7.26324C65.2574 6.95669 65.1491 6.62292 64.8884 6.43259L63.9098 5.7198C63.7643 5.61383 63.7516 5.45645 63.7882 5.34419C63.8243 5.2322 63.9273 5.11243 64.1073 5.11243H65.3163C65.6386 5.11243 65.9226 4.90664 66.023 4.60063L66.4021 3.44318C66.4579 3.27254 66.604 3.21169 66.7213 3.21169C66.7218 3.21169 66.7218 3.21169 66.7224 3.21169C66.8402 3.21197 66.9857 3.27322 67.041 3.444L67.4157 4.59858C67.5156 4.90596 67.7995 5.11256 68.1229 5.11256H69.3303C69.5102 5.11256 69.6133 5.23234 69.6494 5.34433C69.6861 5.45658 69.6733 5.6141 69.5279 5.71993Z" fill="#4C4C4C"/>
</g>
<defs>
<filter id="filter0_d_82_77" x="0" y="0" width="78" height="63.283" filterUnits="userSpaceOnUse" color-interpolation-filters="sRGB">
<feFlood flood-opacity="0" result="BackgroundImageFix"/>
<feColorMatrix in="SourceAlpha" type="matrix" values="0 0 0 0 0 0 0 0 0 0 0 0 0 0 0 0 0 0 127 0" result="hardAlpha"/>
<feOffset dy="4"/>
<feGaussianBlur stdDeviation="2"/>
<feComposite in2="hardAlpha" operator="out"/>
<feColorMatrix type="matrix" values="0 0 0 0 0 0 0 0 0 0 0 0 0 0 0 0 0 0 0.25 0"/>
<feBlend mode="normal" in2="BackgroundImageFix" result="effect1_dropShadow_82_77"/>
<feBlend mode="normal" in="SourceGraphic" in2="effect1_dropShadow_82_77" result="shape"/>
</filter>
</defs>
</svg>
